<?xml version="1.0" encoding="UTF-8"?>
<svg width="181.28mm" height="73.874mm" version="1.1" viewBox="0 0 181.28 73.874" xmlns="http://www.w3.org/2000/svg" xmlns:cc="http://creativecommons.org/ns#" xmlns:dc="http://purl.org/dc/elements/1.1/" xmlns:rdf="http://www.w3.org/1999/02/22-rdf-syntax-ns#">
 <metadata>
  <rdf:RDF>
   <cc:Work rdf:about="">
    <dc:format>image/svg+xml</dc:format>
    <dc:type rdf:resource="http://purl.org/dc/dcmitype/StillImage"/>
    <dc:title/>
   </cc:Work>
  </rdf:RDF>
 </metadata>
 <g transform="translate(-19.027 -90.392)">
  <path d="m36.188 96.202c0.81594-1.2241 1.8664-2.2324 3.095-3.0392 1.3049-0.8569 2.7326-1.4852 4.2309-1.9188 1.5325-0.44309 3.1094-0.67592 4.7046-0.67592h0.23777v1.0305h-0.23777c-1.6157 0-3.2523 0.20038-4.7823 0.7366-1.2933 0.45367-2.5171 1.0929-3.5634 1.9844-0.92992 0.79234-1.6922 1.7318-2.2172 2.8381-0.48881 1.0298-0.75491 2.1184-0.75491 3.259 0 2.3809 1.0027 4.1638 3.0187 5.3784 1.9442-1.5762 3.9758-3.0431 6.0886-4.3843 2.0468-1.2993 4.1779-2.4705 6.3916-3.4607 2.0218-0.90417 4.113-1.6612 6.2604-2.2077 1.9435-0.49495 3.9395-0.78528 5.9475-0.78528 1.2527 0 2.6377 0.15205 3.7726 0.71967 1.0072 0.50377 1.5201 1.3363 1.5201 2.4624 0 1.4714-0.85584 2.7566-1.8447 3.7761-0.88512 0.91334-1.9075 1.699-2.9859 2.3816 0.68404-0.0702 1.3716-0.10301 2.0592-0.10301 0.98108 0 1.9614 0.0882 2.9298 0.242 0.98143 0.15558 1.953 0.37148 2.9087 0.64453 3.127-2.1477 6.6361-3.6978 10.251-4.8204 4.4023-1.3667 9.1006-1.851 13.696-1.851 1.4633 0 2.9266-0.03457 4.3886-0.09525 1.56-0.06526 3.1168-0.19509 4.6669-0.38135 1.6069-0.19262 3.2025-0.47308 4.7801-0.8322 1.6044-0.36512 3.1838-0.83467 4.7216-1.3991 0.50165-0.20073 0.98495-0.44944 1.4492-0.72496 0.48436-0.28787 0.95849-0.59372 1.4171-0.92146 0.40851-0.29139 0.82796-0.5715 1.2615-0.82444 0.31291-0.18239 0.70661-0.36689 1.076-0.36689 0.33514 0 0.61983 0.15734 0.61983 0.52423 0 0.25365-0.21061 0.51082-0.3743 0.68721-0.30762 0.33126-0.90099 0.62018-1.3169 0.80821-0.46072 0.36266-0.91157 0.73801-1.355 1.1222-0.47625 0.41275-0.91088 0.87101-1.3106 1.3575-1.499 1.826-2.8028 3.8435-3.9691 5.8949-1.3483 2.3721-2.758 4.7103-4.2076 7.0213 0.74401 0.0229 1.488 0.0342 2.2324 0.0342h2.7012 2.7876c1.3988-2.1371 2.9288-4.1875 4.5593-6.1532 1.627-1.9611 3.3736-3.8294 5.2578-5.5457 1.6574-1.5092 3.4629-2.8833 5.4229-3.9758 1.5713-0.8763 3.3398-1.5363 5.1594-1.5363 0.62089 0 1.3398 0.07444 1.8877 0.39017 0.38805 0.22437 0.75424 0.51153 1.0093 0.88477 0.20214 0.29457 0.36159 0.62406 0.42086 0.97931 0.031 0.18732 0.0748 0.42333 0.0748 0.61242 0 0.54751-0.15381 1.0654-0.41028 1.5462-0.27376 0.51329-0.63006 0.9712-1.0488 1.3744-0.43498 0.41804-0.91405 0.78599-1.4252 1.1056-0.4953 0.30973-1.0301 0.55633-1.5984 0.6985l-0.19332 0.048-0.381-0.85689 0.25576-0.07867c0.44168-0.13582 0.86678-0.34255 1.2647-0.57573 0.44238-0.25929 0.85231-0.56797 1.2227-0.92251 0.35489-0.34008 0.66534-0.72178 0.91616-1.1451 0.21767-0.36689 0.34925-0.76482 0.34925-1.1938 0-1.4901-0.89147-2.0094-2.2966-2.0094-1.319 0-2.8021 0.92216-3.8273 1.675-1.7702 1.3007-3.3965 2.8593-4.8913 4.4644-1.8179 1.953-3.5179 4.0181-5.1234 6.1486-1.6425 2.1795-3.1863 4.4344-4.6002 6.7687-1.2301 2.0316-2.3731 4.1441-3.3073 6.3292-0.36724 0.85972-0.70132 1.7508-0.93874 2.6561-0.17568 0.66958-0.30903 1.3847-0.30903 2.0789 0 0.46249 0.0755 1.022 0.42827 1.3582 0.32703 0.31115 0.75742 0.41239 1.1987 0.41239 1.6933 0 3.2029-0.63747 4.5424-1.6492 0.67486-0.50977 1.312-1.0788 1.9184-1.6679 0.74048-0.71966 1.4443-1.4795 2.1223-2.2578 0.41628-0.67839 0.91758-1.2989 1.4799-1.8613 0.80539-0.80539 1.7402-1.4453 2.7672-1.935 1.0658-0.50836 2.196-0.76412 3.3768-0.76412 0.88195 0 1.917 0.14287 2.5795 0.78387 0.40288 0.38982 0.68051 0.84773 0.77647 1.3783 0.50094-0.94403 1.0446-1.8665 1.615-2.769 1.1285-1.7854 2.3548-3.5101 3.6463-5.1812 1.2838-1.6612 2.6539-3.2614 4.1303-4.7551 1.2499-1.2644 2.6046-2.4673 4.0749-3.471 0.99731-0.68121 2.2874-1.3801 3.5281-1.3801 0.58244 0 1.1356 0.13899 1.6171 0.47236 0.52176 0.3609 0.7239 0.91335 0.7239 1.5339 0 0.96062-0.59443 2.0782-1.0873 2.8741-0.81563 1.3155-1.8891 2.5132-3.0014 3.5839-1.4175 1.3638-3.0194 2.5548-4.674 3.6146-1.8891 1.2097-3.9296 2.159-6.048 2.891l0.71296-1.2047c0.80681-1.251 1.6214-2.497 2.4412-3.7398 0.93168-1.4129 1.9043-2.8004 2.9305-4.1458 0.83608-1.0964 1.7445-2.1788 2.7474-3.127 0.51471-0.48648 1.3547-1.1783 2.1075-1.1783 0.28293 0 0.60536 0.0515 0.8008 0.27693 0.17075 0.19685 0.25259 0.42086 0.25259 0.68121 0 0.80081-0.37818 1.7434-0.7179 2.4553-0.54716 1.1479-1.3381 2.2038-2.1851 3.1468-1.0844 1.2068-2.3632 2.2606-3.689 3.1916-1.4436 1.0135-3.0413 1.8076-4.6881 2.4391l-0.71296 1.2047c-0.71685 1.0523-1.3903 2.1534-1.9459 3.2992-0.43074 0.88829-0.84561 1.8002-1.186 2.7273-0.22578 0.61489-0.44838 1.2644-0.58879 1.905-0.0441 0.20285-0.0875 0.40711-0.12312 0.61172-0.0155 0.0871-0.0384 0.20567-0.0384 0.29386 0 0.73872 0.38947 1.0058 1.101 1.0058l0.63288 0.86995c0.61242 0.091 1.2139 0.29669 1.6524 0.72108 0.50483 0.48895 0.81316 1.0837 0.81316 1.7963 0 0.14005-8e-3 0.28011-0.0233 0.4191 0.0995-0.10336 0.20073-0.20426 0.30445-0.30374 0.81068-0.77823 1.7265-1.4175 2.7383-1.9068 0.63747-0.30868 1.3025-0.53305 1.9907-0.64982-0.67205-0.0836-1.3526-0.28434-1.8126-0.72954-0.53304-0.51577-0.8135-1.1486-0.8135-1.8916 0-0.0466 2e-3 -0.0938 6e-3 -0.14076-0.078 0.0748-0.15698 0.14852-0.23706 0.22084-0.85373 0.77329-1.8094 1.4058-2.8582 1.881-0.56444 0.25577-1.1543 0.46038-1.76 0.58385l-0.63288-0.86995c0.61207 0 1.2054-0.26282 1.7134-0.58491 0.65899-0.41768 1.2467-0.93168 1.7674-1.5116 0.53234-0.59337 0.98848-1.2471 1.3515-1.9576 0.28681-0.56092 0.54292-1.1984 0.61807-1.8292-0.0173-0.15417-0.0596-0.39194-0.16828-0.50024-0.10513-0.10548-0.22295-0.19862-0.35348-0.27129-0.15064-0.0836-0.29563-0.17709-0.43357-0.28046-0.23424-0.17568-0.2861-0.48965-0.2861-0.76376 0-0.4946 0.24483-0.901 0.60325-1.2273 0.39617-0.35983 0.86819-0.5401 1.403-0.5401 0.5782 0 1.0873 0.19156 1.47 0.63147 0.3743 0.43075 0.53623 0.95074 0.53623 1.5184 0 0.1277-5e-3 0.25506-0.0131 0.38206 0.17251-0.24024 0.34714-0.47907 0.52494-0.71544 0.36865-0.49177 0.73377-0.98601 1.0982-1.4806 0.18274-0.24801 0.39935-0.47625 0.6537-0.65194 0.30092-0.20849 0.71014-0.25753 1.0675-0.25753h0.76482c0.33549 0 0.61983 0.15734 0.61983 0.52423 0 0.0663-0.0152 0.13194-0.036 0.19438-0.0321 0.097-0.0868 0.20285-0.13229 0.29422l-7e-3 0.0134-8e-3 0.0123c-1.1822 1.7731-2.3654 3.5461-3.5631 5.3086-0.49248 0.72496-1.2259 1.9219-1.2259 2.8307 0 0.64206 0.34219 0.86219 0.95779 0.86219 0.54786 0 1.0784-0.14076 1.5769-0.3623 0.55033-0.24448 1.0478-0.57433 1.4884-0.98461 0.43497-0.40463 0.79763-0.8703 1.0756-1.3956 0.25823-0.4879 0.40251-1.009 0.40251-1.5618 0-0.33126-0.0656-0.64947-0.21378-0.94615-0.16545-0.33091-1.1165-0.38418-1.4213-0.39441l-0.25365-9e-3 0.0914-0.91087 0.17921-0.03c0.4378-0.073 0.88653-0.0988 1.33-0.0988 0.47695 0 0.95144 0.061 1.4083 0.20179 0.44133 0.13582 0.82692 0.36935 1.1349 0.71367 0.34325 0.38347 0.46708 0.87206 0.46708 1.3776 0 0.3295-0.0684 0.67451-0.15134 0.99237-0.0229 0.0889-0.0497 0.17674-0.0794 0.26317 0.41628-0.36548 0.82021-0.74507 1.2118-1.1366 0.58808-0.58808 1.1698-1.1825 1.7403-1.7879 0.44555-0.47237 0.88653-0.95285 1.306-1.4485 0.14358-0.16969 0.28716-0.33973 0.42827-0.51153 0.0787-0.0952 0.1584-0.19156 0.23248-0.29034 0.18415-0.24518 0.39935-0.47519 0.65229-0.65017 0.30127-0.20849 0.71014-0.25753 1.0675-0.25753h0.86043c0.33549 0 0.61983 0.15734 0.61983 0.52459 0 0.066-0.0148 0.13193-0.036 0.19438-0.0325 0.097-0.0864 0.20249-0.1323 0.29386l-7e-3 0.0134-8e-3 0.0123c-0.43956 0.65934-0.88865 1.313-1.3413 1.9639-0.49707 0.71437-0.98214 1.4369-1.4538 2.1685-0.41487 0.64382-0.80963 1.3056-1.1592 1.9876-0.17074 0.33267-0.45191 0.9204-0.45191 1.3021 0 0.0635 9e-3 0.14288 0.0519 0.19403 0.0699 0.0822 0.23389 0.0942 0.33197 0.0942 0.86889 0 1.6101-0.4318 2.2281-1.0114 0.18309-0.1718 0.36195-0.34784 0.53834-0.5267 0.10054-0.36795 0.25365-0.71755 0.44767-1.0463 0.34608-0.58667 0.79905-1.1077 1.3977-1.446 0.2159-0.13441 0.44626-0.24201 0.69003-0.31397l0.15699-0.18415 0.15804 0.11288c0.24871-0.0395 0.50059-0.0399 0.75142-4e-3 0.79657 0.1136 1.0774 0.80575 1.1345 1.5236 0.0483 0.43462-0.21096 0.83432-0.49071 1.1419-0.27799 0.30551-0.64946 0.6036-1.0837 0.6036-0.37571 0-0.69709-0.14534-0.86043-0.49565-0.073-0.15593-0.17921-0.24306-0.34643-0.26881-0.14322 0.0152-0.47977 0.29104-0.57502 0.37253-0.31715 0.27199-0.4191 0.65581-0.4191 1.0626 0 0.27305 0.12982 0.52881 0.28857 0.74365 0.19861 0.26952 0.48895 0.35772 0.8128 0.35772 0.29492 0 0.58667-0.0367 0.87171-0.11183 0.32209-0.0847 0.63535-0.22613 0.92675-0.38524 0.4064-0.22119 0.79692-0.49283 1.1666-0.77011 0.52811-0.39617 1.0294-0.84455 1.5092-1.2975l6e-3 -6e-3c0.77364-0.68086 1.4852-1.428 2.1212-2.2391 0.61031-0.77858 1.2414-1.5416 1.8976-2.2818 0.58456-0.65969 1.2326-1.2721 1.953-1.7815 0.70485-0.49847 1.4975-0.73695 2.3601-0.73695 0.33197 0 0.71191 0.0656 0.91687 0.35631 0.0949 0.13441 0.13335 0.2921 0.13335 0.45508 0 0.35384-0.22295 0.80998-0.38664 1.1158-0.27446 0.51258-0.57856 1.0114-0.89465 1.4993-0.37253 0.57609-0.7687 1.1374-1.1804 1.6866-0.39864 0.53164-0.78916 1.07-1.1656 1.6175-0.30092 0.43744-0.5976 0.87947-0.87877 1.33-0.0822 0.13123-0.32244 0.52952-0.32244 0.68686 0 0.01 7.1e-4 0.0314 4e-3 0.0452 0.0138 4e-3 0.0356 4e-3 0.0455 4e-3 0.66922 0 1.2689-0.52564 1.687-0.99589 0.39899-0.44909 0.77822-0.92181 1.149-1.3942 0.53164-0.67663 1.0499-1.3649 1.5632-2.0556 0.37994-0.51223 0.76518-1.0206 1.1479-1.531 0.37042-0.49354 0.77541-0.96309 1.2206-1.391 0.41663-0.40075 0.88089-0.74612 1.3914-1.0185 0.53939-0.28751 1.1285-0.41063 1.7371-0.41063 0.33197 0 0.71191 0.0656 0.91687 0.35631 0.0949 0.13441 0.13335 0.2921 0.13335 0.45508 0 0.54363-0.44238 1.2686-0.73236 1.7082-0.49989 0.75812-1.0231 1.5014-1.5607 2.2331-0.54293 0.73943-1.0612 1.4979-1.543 2.279-0.26952 0.43674-0.65793 1.1391-0.65793 1.6683 0 0.0635 9e-3 0.14288 0.0522 0.19403 0.0699 0.0822 0.23354 0.0942 0.33196 0.0942 0.86854 0 1.6101-0.4318 2.2282-1.0114 0.46425-0.43533 0.90734-0.90029 1.3381-1.3681 0.59796-0.64806 1.1786-1.313 1.7512-1.9833l0.14111-0.1658 0.72143 0.5154-0.1658 0.1965c-0.50589 0.60078-1.0072 1.2054-1.5035 1.8136-0.4826 0.59161-1.0079 1.1486-1.5804 1.6538-0.53869 0.47484-1.1296 0.88406-1.7724 1.2054-0.58985 0.29493-1.2245 0.44098-1.8771 0.47273v7e-3h-0.13829c0.0716 0.24765 0.0501 0.52599-0.0233 0.77929-0.0406 0.13934-0.0713 0.27975-0.1143 0.4191-0.0677 0.21942-0.15487 0.42827-0.26318 0.63076-0.27446 0.51259-0.57855 1.0114-0.89429 1.499-0.37288 0.57643-0.76905 1.1377-1.1807 1.6866-0.39864 0.53198-0.78917 1.0703-1.1656 1.6178-0.30092 0.43745-0.59725 0.87983-0.87877 1.33-0.0822 0.13123-0.32244 0.52952-0.32244 0.68686 0 0.01 7.1e-4 0.0317 4e-3 0.0455 0.0138 3e-3 0.0353 4e-3 0.0452 4e-3 0.66922 0 1.2689-0.52528 1.687-0.99589 0.39899-0.44908 0.77823-0.92181 1.1494-1.3942 0.53128-0.67662 1.0495-1.3649 1.5624-2.0556 0.3803-0.51223 0.76553-1.0206 1.1483-1.5307 0.37041-0.49389 0.7754-0.96344 1.2206-1.3914 0.41698-0.40076 0.88088-0.74612 1.3914-1.0185 0.5394-0.28751 1.1285-0.41063 1.7371-0.41063 0.33196 0 0.71191 0.0656 0.91722 0.3563 0.0946 0.13441 0.133 0.2921 0.133 0.45509 0 0.54363-0.44238 1.2682-0.73201 1.7082-0.49989 0.75812-1.0234 1.5014-1.561 2.2331-0.54292 0.73942-1.0612 1.4982-1.543 2.2789-0.26952 0.43674-0.65793 1.1391-0.65793 1.6683 0 0.0639 9e-3 0.14288 0.0522 0.19403 0.0699 0.0822 0.23354 0.0942 0.33197 0.0942 0.86854 0 1.6101-0.4318 2.2281-1.0114 0.46426-0.43533 0.90735-0.90065 1.3384-1.3681 0.59761-0.6484 1.1783-1.313 1.7508-1.9833l0.14146-0.16581 0.55598 0.39723 11.376-17.989c0.14922-0.23601 0.29492-0.5013 0.47131-0.71685 0.16616-0.20355 0.37112-0.36124 0.60995-0.47166 0.26176-0.12065 0.55457-0.18168 0.83961-0.21167 0.40887-0.043 0.83326-0.0494 1.2442-0.0494 0.29845 0 0.70344 0.043 0.85478 0.34572 0.0353 0.0709 0.0515 0.14782 0.0515 0.22684 0 0.29422-0.21167 0.63218-0.38206 0.85937l-15.689 20.915c0.1965 0.23989 0.29457 0.52317 0.29457 0.83855 0 0.47379-0.20743 0.86643-0.55668 1.1808-0.35666 0.32068-0.77823 0.49107-1.2587 0.49107-0.40288 0-0.85161-0.0843-1.1014-0.43392-0.17815-0.25012-0.27904-0.52987-0.28292-0.83608-0.41487 0.32103-0.85761 0.60325-1.3282 0.83855-0.5902 0.29492-1.2245 0.44274-1.8775 0.47343v6e-3h-0.52175v-0.01c-0.42757-0.0328-0.84173-0.14923-1.2072-0.38735-0.46567-0.30374-0.65758-0.77647-0.65758-1.3226 0-0.61065 0.22225-1.2485 0.47625-1.797 0.31786-0.68615 0.68545-1.3487 1.0904-1.9872 0.0762-0.1203 0.1531-0.23989 0.23072-0.35913-0.21732 0.28363-0.43604 0.56586-0.65582 0.84737-0.43215 0.55386-0.85231 1.1172-1.2608 1.6891-0.38911 0.54504-0.81844 1.0622-1.2922 1.536-0.43744 0.43779-0.92322 0.82585-1.4587 1.137-0.53128 0.30833-1.107 0.46249-1.7212 0.46249-0.9973 0-1.815-0.37571-1.815-1.4806 0-0.51752 0.31432-1.1712 0.55421-1.6182 0.38453-0.71684 0.81915-1.4086 1.2806-2.0782 0.49106-0.71297 1.0036-1.4111 1.5388-2.0916 0.1905-0.24271 0.38171-0.48507 0.57433-0.72672-0.10019 0.0885-0.19121 0.17603-0.26776 0.25258-0.54681 0.54646-1.0753 1.113-1.5928 1.688-0.59161 0.65722-1.1709 1.3254-1.7399 2.002-0.54752 0.65087-1.1352 1.2707-1.7681 1.8401-0.46072 0.41522-0.93662 0.8195-1.434 1.1899-0.38523 0.28681-0.7941 0.56268-1.222 0.7814-0.71438 0.36513-1.4785 0.57573-2.2835 0.57573-0.58385 0-1.1836-0.12029-1.6372-0.51188-0.44415-0.38347-0.60784-0.91969-0.60784-1.4944 0-0.14499 8e-3 -0.28893 0.024-0.4318l1.2245-0.24483c0.0639-0.12453 0.15099-0.23883 0.26705-0.33831 0.0952-0.0815 0.43145-0.35737 0.57468-0.37254 0.16722 0.0257 0.2734 0.11289 0.34643 0.26882 0.16333 0.35031 0.48507 0.4953 0.86042 0.4953 0.43462 0 0.8061-0.29775 1.0841-0.6036 0.2794-0.30727 0.53869-0.70697 0.49071-1.142-0.0575-0.71755-0.33831-1.4097-1.1349-1.5233-0.36301-0.0519-0.71262-0.0265-1.0478 0.0699 0.29739-0.63041 0.4953-1.3106 0.4953-2.0101 0-0.71261-0.30833-1.3074-0.81351-1.7963-0.29916-0.28928-0.67416-0.47731-1.077-0.5962 0.71896-0.0367 1.4041-0.24059 2.0489-0.57009 0.42792-0.21872 0.83679-0.49459 1.2217-0.78105 0.49777-0.37077 0.97367-0.77505 1.4344-1.1903 0.63253-0.56938 1.2206-1.1892 1.7681-1.8401 0.56903-0.67662 1.1483-1.3448 1.7399-2.002 0.51717-0.57503 1.046-1.1412 1.5928-1.688 0.0765-0.0765 0.16757-0.16404 0.26776-0.25259-0.19262 0.24165-0.38382 0.48436-0.57468 0.72672-0.53481 0.68051-1.0474 1.3787-1.5385 2.0916-0.46143 0.66957-0.89606 1.3614-1.2806 2.0782-0.23989 0.44733-0.55422 1.1007-0.55422 1.6182 0 1.1049 0.81774 1.4806 1.815 1.4806 0.61419 0 1.1899-0.15416 1.7208-0.46249 0.53587-0.31115 1.0213-0.69956 1.4591-1.137 0.47378-0.47378 0.90311-0.99095 1.2922-1.536 0.40851-0.57186 0.82867-1.1349 1.2608-1.6891 0.21978-0.28117 0.4385-0.56374 0.65581-0.84738-0.0776 0.11924-0.15452 0.23919-0.23072 0.35878-0.40499 0.63888-0.77258 1.3014-1.0904 1.9879-0.25436 0.54786-0.47625 1.186-0.47625 1.797 0 0.4826 0.14993 0.9077 0.50659 1.21-0.63818 0.25082-1.258 0.74683-1.7078 1.1691-0.30021 0.28117-0.62195 0.54011-0.93416 0.80751-0.34995 0.29951-0.68791 0.60784-0.99377 0.95321-0.65617 0.74013-1.2869 1.5032-1.8976 2.2818-0.63606 0.81069-1.3476 1.5582-2.1213 2.2391l-6e-3 6e-3c-0.47942 0.45297-0.98072 0.90135-1.5092 1.2975-0.36971 0.27728-0.76024 0.54892-1.1666 0.77046-0.29104 0.15875-0.60466 0.30022-0.92674 0.38488-0.28469 0.0751-0.57715 0.11183-0.87172 0.11183-0.3242 0-0.61454-0.0882-0.8128-0.35736-0.15839-0.21519-0.28857-0.47096-0.28857-0.74401 0-0.25788 0.0409-0.50729 0.1524-0.72425l-1.2245 0.24483c-0.75459 0.65299-1.5924 1.1949-2.4966 1.626-1.0192 0.48648-2.1015 0.76447-3.2336 0.76447l0.57326-0.95285c-0.27975 0-0.63253-0.0459-0.81385-0.28752-0.14923-0.19932-0.23919-0.4198-0.23919-0.67063 0-0.80363 0.26423-1.6157 0.59937-2.3382 0.40534-0.87312 0.90029-1.6986 1.4799-2.4666 0.54222-0.71826 1.1684-1.3727 1.8895-1.9131 0.49354-0.37041 1.1335-0.74153 1.7699-0.74153 0.71967 0 1.197 0.23071 1.197 1.0054 0 0.67451-0.26987 1.445-0.53093 2.0585-0.37218 0.87348-0.8509 1.6954-1.4079 2.4634-0.55669 0.76729-1.2016 1.4633-1.9406 2.0581-0.56974 0.45826-1.2538 0.83221-2.0031 0.83221l-0.57326 0.95285c-0.80222 0-1.7932-0.10971-2.426-0.65511-0.56092-0.48366-0.77576-1.1497-0.77576-1.8771 0-0.26106 0.0247-0.52035 0.0688-0.77646l-0.11112-1.2711c-0.41134 0.47166-0.82339 0.94262-1.2368 1.4125-0.66428 0.75459-1.3451 1.4951-2.0475 2.214-0.6657 0.68122-1.3554 1.3395-2.0676 1.9724-0.40745 0.36231-0.8202 0.71861-1.2375 1.0693 1.003-1.6626 1.9988-3.3299 2.9863-5.002 1.215-2.0578 2.4186-4.1226 3.6107-6.1934l4e-3 -6e-3 3e-3 -6e-3c0.0515-0.10301 0.10971-0.22366 0.13758-0.33549 0.0159-0.0639 0.0307-0.13476 0.0307-0.20108 0-0.36654-0.28434-0.52423-0.61983-0.52423h-0.71684c-0.36971 0-0.7239 0.0882-1.0248 0.30903-0.26459 0.19403-0.48472 0.43286-0.65864 0.71085l-0.061 0.0917c-0.18238-0.28751-0.41945-0.53551-0.68968-0.74965-0.28857-0.22825-0.6544-0.35807-1.0333-0.42862 0.64382-0.0857 1.2728-0.25153 1.8838-0.49813 0.92075-0.37147 1.7988-0.83467 2.6247-1.3854 0.81951-0.54646 1.5903-1.1624 2.3033-1.8422 0.22684-0.21696 0.45367-0.43497 0.6791-0.65334-0.0829 0.1464-0.16334 0.29421-0.24095 0.44344-0.18627 0.35701-0.35313 0.72566-0.49071 1.1042-0.11995 0.32985-0.20567 0.68439-0.20567 1.0375 0 0.55598 0.20672 1.0255 0.68544 1.3247 0.4565 0.2854 0.97861 0.39476 1.512 0.39476 0.75247 0 1.4862-0.14146 2.1618-0.47943 0.53728-0.26881 1.0389-0.59866 1.5035-0.97754 0.0649 0.41733 0.24024 0.79692 0.57785 1.0883 0.16016 0.13829 0.33867 0.24306 0.52811 0.32032-0.0533-1e-3 -0.10619-2e-3 -0.15875-2e-3 -1.1808 0-2.311 0.25576-3.3768 0.76411-1.0269 0.48966-1.9618 1.1296-2.7672 1.935-0.52317 0.52317-0.99307 1.0964-1.391 1.7194l-8e-3 -6e-3 -0.14181 0.16334c-0.35137 0.40569-0.7038 0.81103-1.0566 1.2157l0.11112 1.2711c-0.42968 0.49882-0.86395 0.99483-1.3039 1.4848-0.76764 0.85443-1.5561 1.6937-2.3774 2.497-0.69745 0.68262-1.4175 1.3441-2.1646 1.9724-0.74648 0.62794-1.5011 1.2471-2.2602 1.8606-1.1204 2.135-2.2881 4.2471-3.5211 6.32-1.0915 1.8352-2.2348 3.6424-3.4512 5.3982-2.0983 3.0296-4.5106 5.8808-7.3071 8.2917-1.0601 0.91369-2.2162 1.717-3.4657 2.3506-1.0463 0.53022-2.1989 0.91016-3.3824 0.91016-0.71932 0-1.4503-0.16757-1.9463-0.72531-0.44203-0.49742-0.63359-1.0996-0.63359-1.7593 0-1.8835 0.90135-3.6657 1.9812-5.159 1.4354-1.9847 3.1496-3.7902 4.9569-5.4384 2.098-1.9135 4.3296-3.6809 6.6439-5.3248 2.3019-1.6358 4.6464-3.2142 7.0407-4.7117l-1.0075 1.8948c-0.4953 0.83573-0.99095 1.6711-1.4866 2.5068-0.87278 1.4718-1.7752 2.9259-2.6966 4.3677-1.0044 1.5709-2.0398 3.1221-3.1027 4.6538-1.0065 1.4503-2.0708 2.866-3.2131 4.2125-0.9211 1.0866-1.9262 2.1495-3.0293 3.0536-0.63571 0.52141-1.5494 1.1416-2.407 1.1416-0.2152 0-0.42087-0.049-0.53764-0.24341-0.14217-0.23742-0.18132-0.53799-0.18132-0.80998 0-1.1395 0.32243-2.3442 0.70343-3.41 0.56163-1.5734 1.59-3.0981 2.6166-4.4034 0.70661-0.89853 1.4855-1.7466 2.2938-2.5545 0.97402-0.97402 2.0006-1.8994 3.0512-2.7898 1.2555-1.0636 2.5732-2.0602 3.9158-3.011 1.3314-0.94298 2.6934-1.8436 4.0735-2.7143l1.0075-1.8948c0.40676-0.65158 0.8061-1.3092 1.185-1.977 0.32914-0.57961 0.65546-1.1606 0.97931-1.7431 0.34713-0.62477 0.6985-1.2467 1.053-1.8669 0.19473-0.34149 0.38946-0.68298 0.5842-1.0248l-0.68369-0.65652c0.49248-0.45932 0.95497-0.95039 1.3917-1.4626 0.44098-0.51682 0.86431-1.0502 1.2527-1.6073 0.31961-0.45861 0.61983-0.93098 0.89711-1.4164 0.22331-0.39052 0.3496-0.80998 0.35101-1.2601-0.0215-0.28681-0.10548-0.57997-0.36406-0.73801-0.25541-0.15593-0.5334-0.2279-0.83256-0.2279-0.75177 0-1.4478 0.36478-2.0309 0.81139-0.75318 0.57715-1.4238 1.2492-2.0144 1.9914-0.59549 0.74789-1.1105 1.5554-1.5254 2.4172-0.28787 0.59725-0.59831 1.3748-0.59831 2.0482 0 0.22367 0.0561 0.45227 0.13017 0.66217 0.0811 0.23036 0.48931 0.24765 0.68404 0.24765 0.43603 0 0.87277-0.18274 1.2435-0.39794 0.51223-0.29739 0.98319-0.66428 1.4153-1.0678l0.68369 0.65652c-0.45297 0.4011-0.93557 0.76799-1.4496 1.082-0.82479 0.50411-1.7311 0.82373-2.7054 0.82373-0.71896 0-1.6362-0.10936-2.1209-0.70979-0.36089-0.44661-0.55492-0.95955-0.55492-1.5356 0-0.27587 0.0243-0.54892 0.0695-0.81844-0.13794 0.14252-0.2794 0.28187-0.42369 0.41769-0.83996 0.79022-1.7928 1.4333-2.8335 1.9297-1.0192 0.48648-2.1015 0.76447-3.2339 0.76447l0.57397-0.95285c-0.28011 0-0.63289-0.0459-0.81386-0.28752-0.14958-0.19932-0.23954-0.4198-0.23954-0.67063 0-0.80363 0.26388-1.6157 0.59937-2.3382 0.40534-0.87312 0.89994-1.6986 1.4803-2.4666 0.54222-0.71826 1.168-1.3727 1.8891-1.9131 0.49354-0.37041 1.1338-0.74153 1.7699-0.74153 0.71967 0 1.197 0.23071 1.197 1.0054 0 0.67451-0.26952 1.445-0.53093 2.0585-0.37182 0.87348-0.8509 1.6954-1.4079 2.4634-0.55669 0.76729-1.2016 1.4633-1.941 2.0581-0.56938 0.45826-1.2531 0.83221-2.0024 0.83221l-0.57397 0.95285c-0.80187 0-1.7928-0.10971-2.4257-0.65511-0.56057-0.48366-0.77541-1.1497-0.77541-1.8771 0-0.29669 0.0318-0.59126 0.0882-0.88159l-0.31362-0.94015c-0.28611 0.30127-0.57715 0.5976-0.87419 0.88653-0.49565 0.48224-1.035 0.95426-1.614 1.3342-0.44803 0.29387-0.93592 0.53093-1.4573 0.66146-0.52105 0.13018-1.0622 0.16475-1.5974 0.13688-0.34537-0.0349-0.75071-0.13265-0.78493-0.53693 7.1e-4 -0.18027 0.0254-0.35983 0.066-0.53552 0.0473-0.20672 0.18168-0.41063 0.31256-0.57432 0.21767-0.27199 0.51294-0.51611 0.79234-0.72213 0.44874-0.33197 0.97226-0.61384 1.4707-0.86325 0.63712-0.31821 1.2749-0.66464 1.8666-1.0608 0.41275-0.27623 0.8449-0.60325 1.1709-0.98002 0.39476-0.45614 0.83573-1.083 0.82303-1.7142-0.0148-0.74224-0.19438-1.4901-0.81315-1.9434l-0.16581-0.91299c0.74895 0 1.433-0.37394 2.0024-0.8322 0.73942-0.59443 1.3843-1.2908 1.941-2.0581 0.55704-0.76764 1.0361-1.59 1.4079-2.4634 0.26141-0.61348 0.53058-1.3839 0.53058-2.0584 0-0.7747-0.47696-1.0054-1.1966-1.0054-0.63606 0-1.2764 0.37112-1.7699 0.74119-0.72108 0.54116-1.3469 1.1948-1.8895 1.9135-0.57997 0.768-1.0746 1.5938-1.4799 2.4666-0.3355 0.72249-0.59937 1.5346-0.59937 2.3382 0 0.25047 0.09 0.47131 0.23953 0.67027 0.18098 0.24201 0.53376 0.28787 0.81386 0.28787l0.16581 0.91299c0.86536-0.0924 1.699-0.34537 2.4941-0.72461 1.0407-0.49636 1.9939-1.1395 2.8335-1.9297 0.3302-0.31115 0.64452-0.63888 0.93803-0.98425-0.0829 0.38382-0.13511 0.77223-0.13511 1.1462 0 0.65758 0.17568 1.2672 0.57432 1.7928 0.32244 0.4251 0.89429 0.62442 1.4728 0.71508-0.6851 0.12241-1.3497 0.3369-1.9911 0.64276-1.0269 0.48966-1.9618 1.1296-2.7668 1.935-0.58913 0.58878-1.1098 1.24-1.5367 1.9551l-0.0984 0.11077c-0.375 0.42157-0.756 0.84138-1.1458 1.2524l0.31362 0.94015c-0.15558 0.16545-0.31115 0.33055-0.46743 0.49495-0.55563 0.58596-1.1638 1.1299-1.8309 1.5864-0.59549 0.40746-1.2386 0.73871-1.9255 0.96202-0.70238 0.22825-1.4393 0.32244-2.1766 0.32244-0.71473 0-1.5501-0.0921-2.1622-0.49283-0.61525-0.40322-0.80046-1.0992-0.80046-1.8002 0-0.84949 0.31962-1.5797 0.90135-2.195 0.73201-0.77399 1.8623-1.3702 2.825-1.7988 0.66252-0.29528 2.7757-1.263 2.7757-2.1735 0-0.23212-0.0893-0.39475-0.28928-0.51258-0.27023-0.15875-0.59902-0.20638-0.9077-0.20638-0.47519 0-0.95638 0.1831-1.3712 0.40288-0.5835 0.30903-1.1384 0.68086-1.6648 1.0791-0.61383 0.46461-1.1949 0.97367-1.7466 1.5106-0.57256 0.55703-1.1187 1.1409-1.6334 1.7515l-0.13265 0.15769-0.79128-0.49424 0.17956-0.20955c0.59126-0.69003 1.2107-1.3554 1.8528-1.9978 0.63359-0.63359 1.301-1.234 2.0055-1.7875 0.63677-0.50024 1.3208-0.9465 2.0525-1.2947 0.4579-0.21802 0.97225-0.44662 1.4912-0.55774-0.10725-0.0624-0.20814-0.13335-0.30163-0.21414-0.56056-0.4833-0.7754-1.1494-0.7754-1.8768 0-0.2794 0.0279-0.55668 0.0783-0.83044-0.76588 0.7994-1.5882 1.5452-2.4705 2.2147-0.90981 0.69004-1.8923 1.276-2.9425 1.7262-0.99589 0.42686-2.044 0.66463-3.1291 0.66463-0.97508 0-1.8493-0.30339-2.6106-0.91264-0.92075-0.73624-1.1645-1.9318-1.1645-3.0536 0-0.79128 0.14534-1.6016 0.34184-2.3661 0.25682-0.99977 0.61701-1.9847 1.0149-2.9365 0.93839-2.2451 2.116-4.4041 3.4082-6.4664-0.5969-0.0801-1.1977-0.13864-1.7974-0.18556-0.8128-0.0639-1.6281-0.0949-2.4437-0.0949-0.60113 0-1.203 0.0141-1.8034 0.0476-0.51682 0.0286-1.0329 0.0709-1.5473 0.12911-1.0199 1.5889-2.0877 3.1468-3.1979 4.6736-1.1296 1.5533-2.3573 3.0335-3.6625 4.4418 1.5346 1.1673 2.7651 2.6088 3.6121 4.3504 0.86219 1.7734 1.2908 3.6537 1.2908 5.6258 0 2.0112-0.45368 3.9476-1.263 5.7848-0.87806 1.9921-2.183 3.707-3.7864 5.1714-1.833 1.6743-4.0474 2.8684-6.3645 3.7285-2.8423 1.0548-5.9327 1.4252-8.951 1.4252-2.5795 0-5.1368-0.32667-7.6362-0.96344-2.4751-0.63076-4.8338-1.5977-7.0203-2.9192-2.1625-1.3074-4.0524-2.951-5.6543-4.9054-1.6552-2.0193-2.7746-4.343-3.4562-6.8545l-0.23036-1.041c-1.1772-0.46884-2.3036-1.0513-3.3613-1.7519-1.1377-0.75318-2.1586-1.6545-3.0325-2.703-0.87736-1.0527-1.5526-2.238-2.0401-3.5179-0.54116-1.421-0.7493-2.9429-0.7493-4.4574 0-1.6291 0.35525-3.1828 1.0527-4.6556 0.71755-1.5141 1.7353-2.8166 3.0007-3.9141 1.373-1.191 2.9623-2.0708 4.6605-2.7058 1.9244-0.71967 3.9638-1.0128 6.0124-1.0128 0.7941 0 1.5931 0.0836 2.3763 0.21167 0.72108 0.11818 1.4333 0.28504 2.1318 0.49741l1.5889 0.56551c0.76764 0.33196 1.5081 0.7239 2.2137 1.174 0.72002 0.45967 1.3695 1.0118 1.9332 1.6538 0.56268 0.64065 1.0015 1.3649 1.3208 2.1551 0.33972 0.84102 0.48472 1.7318 0.48472 2.6363 0 2.3026-0.8255 4.2037-2.6571 5.6212-2.1481 1.6623-5.1297 2.1943-7.7777 2.317l-0.25294 0.0116 0.09913 0.89288h0.21272c1.5071 0 3.0004-0.20109 4.4581-0.58138 1.4164-0.36936 2.7795-0.91475 4.0315-1.676 1.1673-0.70979 2.1671-1.6185 2.9411-2.746 0.7807-1.137 1.1412-2.4137 1.1412-3.7916 0-1.0308-0.18027-2.0398-0.59337-2.987-0.39264-0.89959-0.91828-1.7202-1.5702-2.4536-0.66746-0.75107-1.4436-1.3857-2.3005-1.9092-0.75812-0.46319-1.5522-0.8636-2.3717-1.2047 2.8109-1.7036 5.891-2.933 9.0523-3.8142 3.9402-1.0982 8.0945-1.4972 12.175-1.4972 1.6916 0 3.3835-0.0251 5.0744-0.072 1.7533-0.0487 3.5027-0.20391 5.2384-0.4565 1.8041-0.26247 3.5821-0.67945 5.3202-1.2277 1.3021-0.41028 2.5622-0.93627 3.7758-1.5565-0.90276 0.92357-1.7685 1.8831-2.5954 2.8755-1.1994 1.4393-2.3509 2.9185-3.4519 4.4344-1.1067 1.5244-2.1914 3.0642-3.2547 4.6193-1.0576 1.5473-2.1216 3.09-3.1792 4.6373-0.66569 0.97402-1.3448 1.9389-2.0503 2.8847-0.66499 0.89182-1.3427 1.7741-2.0327 2.6469-1.0054-0.43921-2.0574-0.76976-3.126-1.0153-1.2986-0.29845-2.643-0.4124-3.9733-0.4124-1.7498 0-3.4618 0.2921-5.1022 0.89923-1.5766 0.58314-3.0145 1.427-4.2605 2.5566-1.2277 1.113-2.2006 2.4292-2.9228 3.9211-0.76764 1.5868-1.0996 3.2949-1.0996 5.0514 0 0.26776 0.0088 0.53552 0.02434 0.80292 0.01129 0.19227 0.02716 0.38453 0.04727 0.57574l0.8763-0.16969c1.983-0.35172 3.9483-0.86289 5.8247-1.5974 1.7614-0.68933 3.4579-1.537 5.0497-2.5601 1.5155-0.97437 2.9482-2.0722 4.27-3.2971 1.2305-1.1405 2.3918-2.3544 3.4773-3.6336-0.8128-0.44979-1.6852-0.77752-2.5859-1.0061-1.1123-0.28222-2.2617-0.39899-3.4075-0.39899-1.6471 0-3.2664 0.25435-4.8218 0.79939-1.4771 0.51788-2.8384 1.2689-4.0375 2.2765-1.1765 0.98813-2.1033 2.1795-2.7845 3.5567-0.72072 1.4577-1.0269 3.0318-1.0269 4.6517v0.74119c0 0.15698 0.01482 0.31362 0.04233 0.46778l-0.8763 0.16969c-0.94156 0.14534-1.8898 0.25012-2.8399 0.32102-1.0993 0.0822-2.2024 0.11889-3.3048 0.11889-1.6129 0-3.2226-0.14041-4.814-0.40322-1.5769-0.26-3.1291-0.64947-4.6411-1.1663l0.29916 1.0336c0.67733 2.2017 1.7325 4.2256 3.2187 5.999 1.5409 1.8401 3.351 3.3821 5.4134 4.6097 2.0863 1.2425 4.3279 2.1639 6.6788 2.7714 2.3502 0.60677 4.7554 0.92463 7.1836 0.92463 2.7143 0 5.5069-0.34961 8.0387-1.3695 2.0729-0.83502 4.0248-1.9748 5.6367-3.5359 1.4386-1.3931 2.5813-3.0117 3.3397-4.8676 0.70944-1.7357 1.106-3.5535 1.106-5.4317 0-1.7039-0.31609-3.3538-0.96237-4.9301-0.60537-1.4764-1.4901-2.7573-2.6638-3.8276-1.2548 1.2418-2.5841 2.4066-3.974 3.4946-1.5102 1.1818-3.126 2.2225-4.8151 3.1295-1.7946 0.96379-3.6763 1.7579-5.6063 2.4063-2.0246 0.68016-4.1127 1.1666-6.2216 1.5011 0.21414 0.95144 0.57856 1.9152 1.2118 2.6624 0.47131 0.55562 1.0703 1.1296 1.7515 1.4168l0.2734 0.11501-0.52352 0.73307-0.17674-0.0776c-0.88724-0.39017-1.6016-1.0224-2.1749-1.797-0.63147-0.85337-1.0227-1.8591-1.2608-2.8886-2.093 0.27905-4.2062 0.40323-6.3172 0.40323-1.6048 0-3.2082-0.13935-4.7932-0.38559-1.482-0.23001-2.9415-0.58067-4.3628-1.0555l-0.29989-1.0334c-0.17604-0.77964-0.31644-1.567-0.42086-2.3597-0.115-0.86889-0.16545-1.7459-0.16545-2.6222 0-1.6951 0.25541-3.3722 0.70873-5.0042 0.48824-1.7582 1.2171-3.4332 2.128-5.0126 0.98778-1.7117 2.1879-3.29 3.5302-4.7382 1.4436-1.5572 3.0865-2.9157 4.8472-4.0993l-1.5889-0.56551c-1.6115 1.2234-3.1059 2.5972-4.4252 4.1338-1.3014 1.5155-2.4589 3.1552-3.3997 4.9191-0.87454 1.6397-1.566 3.3676-2.0285 5.1682-0.42827 1.6676-0.67663 3.3796-0.67663 5.1029 0 1.5723 0.14182 3.1485 0.47872 4.6852l0.23036 1.041c-1.3723-0.50835-2.6843-1.1568-3.9215-1.9399-1.2531-0.79305-2.3753-1.7568-3.3295-2.8924-0.96026-1.1423-1.7014-2.4296-2.2391-3.8202-0.59866-1.5494-0.82868-3.2117-0.82868-4.8666 0-1.7727 0.39158-3.4682 1.1462-5.0729 0.768-1.6348 1.8404-3.0561 3.1881-4.2594 0.11712-0.10442 0.23636-0.20744 0.35701-0.30798-2.3506 0.58314-4.7516 0.87489-7.1766 0.87489-1.451 0-2.9055-0.0917-4.3409-0.30797-1.2478-0.18839-2.4804-0.4886-3.6622-0.9331l0.90523-0.75353c1.0329 0.34678 2.1121 0.57608 3.1873 0.7306 1.475 0.21202 2.9771 0.28928 4.4662 0.28928 2.1967 0 4.3713-0.29563 6.495-0.85337 1.1314-0.29739 2.2479-0.6537 3.3366-1.082 0.43709-0.20814 0.8823-0.39935 1.3353-0.57044l6e-3 -2e-3c0.39194-0.18098 0.77893-0.37253 1.1599-0.57538 1.5282-0.8128 2.9905-1.8284 4.1578-3.1164 0.87101-0.96097 1.5494-2.1202 1.5494-3.4516 0-0.67451-0.1711-1.3279-0.81315-1.6489-0.69215-0.34608-1.5176-0.44697-2.2825-0.44697-1.8673 0-3.7232 0.30057-5.5203 0.79692-2.007 0.55421-3.9511 1.3176-5.8194 2.2341-2.0373 0.99942-3.9906 2.1678-5.8589 3.4544-1.8863 1.2996-3.6865 2.721-5.3993 4.2418l-0.90523 0.75353c-2.5418 2.3312-4.8967 4.8578-7.0619 7.5417-2.1766 2.6984-4.1326 5.5697-5.8102 8.6042-1.5871 2.8713-2.9115 5.8822-3.8981 9.0121-0.90332 2.8663-1.4334 5.8353-1.4334 8.8452 0 2.4768 0.49057 5.0211 2.0861 6.9892 1.6269 2.0077 4.2089 2.5513 6.6765 2.5513 2.4313 0 4.8092-0.42298 7.0439-1.397 2.0094-0.87595 3.902-2.0073 5.5488-3.4604 1.4199-1.2531 2.6889-2.6966 3.6163-4.3547 0.67486-1.2058 1.2753-2.6462 1.2753-4.0506 0-1.1204-0.2801-2.1968-1.1419-2.9609-0.90699-0.80398-2.1682-1.0238-3.3426-1.0238-1.1451 0-2.261 0.19614-3.3338 0.59619-1.0559 0.3937-2.0764 0.8763-3.0446 1.4534-0.8956 0.5341-1.7658 1.1162-2.5859 1.7607-0.63391 0.49777-1.2668 1.0015-1.8824 1.5222l-0.16662 0.14111-0.65924-0.65934 0.17498-0.16757c1.7104-1.6408 3.6142-3.085 5.7215-4.1783 1.9477-1.0107 4.0255-1.5547 6.2205-1.5547 1.6379 0 3.3158 0.33444 4.5974 1.4175 1.1278 0.95285 1.6954 2.177 1.6954 3.6534 0 1.8747-0.75847 3.5976-1.821 5.1089-1.2728 1.8094-2.879 3.3422-4.6658 4.6387-1.9826 1.4386-4.1716 2.5428-6.4763 3.3648-2.3454 0.83608-4.7817 1.2915-7.274 1.2915-1.9004 0-3.9459-0.20214-5.7262-0.90558-1.393-0.54998-2.6869-1.3339-3.6996-2.45-0.94216-1.0382-1.5941-2.2444-1.9695-3.5959-0.38308-1.3797-0.5643-2.7989-0.5643-4.2302 0-3.1577 0.5829-6.2576 1.5959-9.2428 1.0899-3.2124 2.5495-6.2809 4.2992-9.1853 1.8499-3.0702 3.9921-5.9538 6.3583-8.6452 2.3312-2.6515 4.8573-5.1252 7.5669-7.3886-1.1157-0.65017-2.0992-1.4817-2.8591-2.5382-0.81841-1.1377-1.1836-2.4345-1.1836-3.8329 0-1.451 0.40171-2.7852 1.2066-3.9924" fill="#efecff" fill-rule="evenodd"/>
  <path d="m36.188 96.202c0.81594-1.2241 1.8664-2.2324 3.095-3.0392 1.3049-0.8569 2.7326-1.4852 4.2309-1.9188 1.5325-0.44309 3.1094-0.67592 4.7046-0.67592h0.23777v1.0305h-0.23777c-1.6157 0-3.2523 0.20038-4.7823 0.7366-1.2933 0.45367-2.5171 1.0929-3.5634 1.9844-0.92992 0.79234-1.6922 1.7318-2.2172 2.8381-0.48881 1.0298-0.75491 2.1184-0.75491 3.259 0 2.3809 1.0027 4.1638 3.0187 5.3784 1.9442-1.5762 3.9758-3.0431 6.0886-4.3843 2.0468-1.2993 4.1779-2.4705 6.3916-3.4607 2.0218-0.90417 4.113-1.6612 6.2604-2.2077 1.9435-0.49495 3.9395-0.78528 5.9475-0.78528 1.2527 0 2.6377 0.15205 3.7726 0.71967 1.0072 0.50377 1.5201 1.3363 1.5201 2.4624 0 1.4714-0.85584 2.7566-1.8447 3.7761-0.88512 0.91334-1.9075 1.699-2.9859 2.3816 0.68404-0.0702 1.3716-0.10301 2.0592-0.10301 0.98108 0 1.9614 0.0882 2.9298 0.242 0.98143 0.15558 1.953 0.37148 2.9087 0.64453 3.127-2.1477 6.6361-3.6978 10.251-4.8204 4.4023-1.3667 9.1006-1.851 13.696-1.851 1.4633 0 2.9266-0.03457 4.3886-0.09525 1.56-0.06526 3.1168-0.19509 4.6669-0.38135 1.6069-0.19262 3.2025-0.47308 4.7801-0.8322 1.6044-0.36512 3.1838-0.83467 4.7216-1.3991 0.50165-0.20073 0.98495-0.44944 1.4492-0.72496 0.48436-0.28787 0.95849-0.59372 1.4171-0.92146 0.40851-0.29139 0.82796-0.5715 1.2615-0.82444 0.31291-0.18239 0.70661-0.36689 1.076-0.36689 0.33514 0 0.61983 0.15734 0.61983 0.52423 0 0.25365-0.21061 0.51082-0.3743 0.68721-0.30762 0.33126-0.90099 0.62018-1.3169 0.80821-0.46072 0.36266-0.91157 0.73801-1.355 1.1222-0.47625 0.41275-0.91088 0.87101-1.3106 1.3575-1.499 1.826-2.8028 3.8435-3.9691 5.8949-1.3483 2.3721-2.758 4.7103-4.2076 7.0213 0.74401 0.0229 1.488 0.0342 2.2324 0.0342h2.7012 2.7876c1.3988-2.1371 2.9288-4.1875 4.5593-6.1532 1.627-1.9611 3.3736-3.8294 5.2578-5.5457 1.6574-1.5092 3.4629-2.8833 5.4229-3.9758 1.5713-0.8763 3.3398-1.5363 5.1594-1.5363 0.62089 0 1.3398 0.07444 1.8877 0.39017 0.38805 0.22437 0.75424 0.51153 1.0093 0.88477 0.20214 0.29457 0.36159 0.62406 0.42086 0.97931 0.031 0.18732 0.0748 0.42333 0.0748 0.61242 0 0.54751-0.15381 1.0654-0.41028 1.5462-0.27376 0.51329-0.63006 0.9712-1.0488 1.3744-0.43498 0.41804-0.91405 0.78599-1.4252 1.1056-0.4953 0.30973-1.0301 0.55633-1.5984 0.6985l-0.19332 0.048-0.381-0.85689 0.25576-0.07867c0.44168-0.13582 0.86678-0.34255 1.2647-0.57573 0.44238-0.25929 0.85231-0.56797 1.2227-0.92251 0.35489-0.34008 0.66534-0.72178 0.91616-1.1451 0.21767-0.36689 0.34925-0.76482 0.34925-1.1938 0-1.4901-0.89147-2.0094-2.2966-2.0094-1.319 0-2.8021 0.92216-3.8273 1.675-1.7702 1.3007-3.3965 2.8593-4.8913 4.4644-1.8179 1.953-3.5179 4.0181-5.1234 6.1486-1.6425 2.1795-3.1863 4.4344-4.6002 6.7687-1.2301 2.0316-2.3731 4.1441-3.3073 6.3292-0.36724 0.85972-0.70132 1.7508-0.93874 2.6561-0.17568 0.66958-0.30903 1.3847-0.30903 2.0789 0 0.46249 0.0755 1.022 0.42827 1.3582 0.32703 0.31115 0.75742 0.41239 1.1987 0.41239 1.6933 0 3.2029-0.63747 4.5424-1.6492 0.67486-0.50977 1.312-1.0788 1.9184-1.6679 0.74048-0.71966 1.4443-1.4795 2.1223-2.2578 0.41628-0.67839 0.91758-1.2989 1.4799-1.8613 0.80539-0.80539 1.7402-1.4453 2.7672-1.935 1.0658-0.50836 2.196-0.76412 3.3768-0.76412 0.88195 0 1.917 0.14287 2.5795 0.78387 0.40288 0.38982 0.68051 0.84773 0.77647 1.3783 0.50094-0.94403 1.0446-1.8665 1.615-2.769 1.1285-1.7854 2.3548-3.5101 3.6463-5.1812 1.2838-1.6612 2.6539-3.2614 4.1303-4.7551 1.2499-1.2644 2.6046-2.4673 4.0749-3.471 0.99731-0.68121 2.2874-1.3801 3.5281-1.3801 0.58244 0 1.1356 0.13899 1.6171 0.47236 0.52176 0.3609 0.7239 0.91335 0.7239 1.5339 0 0.96062-0.59443 2.0782-1.0873 2.8741-0.81563 1.3155-1.8891 2.5132-3.0014 3.5839-1.4175 1.3638-3.0194 2.5548-4.674 3.6146-1.8891 1.2097-3.9296 2.159-6.048 2.891l0.71296-1.2047c0.80681-1.251 1.6214-2.497 2.4412-3.7398 0.93168-1.4129 1.9043-2.8004 2.9305-4.1458 0.83608-1.0964 1.7445-2.1788 2.7474-3.127 0.51471-0.48648 1.3547-1.1783 2.1075-1.1783 0.28293 0 0.60536 0.0515 0.8008 0.27693 0.17075 0.19685 0.25259 0.42086 0.25259 0.68121 0 0.80081-0.37818 1.7434-0.7179 2.4553-0.54716 1.1479-1.3381 2.2038-2.1851 3.1468-1.0844 1.2068-2.3632 2.2606-3.689 3.1916-1.4436 1.0135-3.0413 1.8076-4.6881 2.4391l-0.71296 1.2047c-0.71685 1.0523-1.3903 2.1534-1.9459 3.2992-0.43074 0.88829-0.84561 1.8002-1.186 2.7273-0.22578 0.61489-0.44838 1.2644-0.58879 1.905-0.0441 0.20285-0.0875 0.40711-0.12312 0.61172-0.0155 0.0871-0.0384 0.20567-0.0384 0.29386 0 0.73872 0.38947 1.0058 1.101 1.0058l0.63288 0.86995c0.61242 0.091 1.2139 0.29669 1.6524 0.72108 0.50483 0.48895 0.81316 1.0837 0.81316 1.7963 0 0.14005-8e-3 0.28011-0.0233 0.4191 0.0995-0.10336 0.20073-0.20426 0.30445-0.30374 0.81068-0.77823 1.7265-1.4175 2.7383-1.9068 0.63747-0.30868 1.3025-0.53305 1.9907-0.64982-0.67205-0.0836-1.3526-0.28434-1.8126-0.72954-0.53304-0.51577-0.8135-1.1486-0.8135-1.8916 0-0.0466 2e-3 -0.0938 6e-3 -0.14076-0.078 0.0748-0.15698 0.14852-0.23706 0.22084-0.85373 0.77329-1.8094 1.4058-2.8582 1.881-0.56444 0.25577-1.1543 0.46038-1.76 0.58385l-0.63288-0.86995c0.61207 0 1.2054-0.26282 1.7134-0.58491 0.65899-0.41768 1.2467-0.93168 1.7674-1.5116 0.53234-0.59337 0.98848-1.2471 1.3515-1.9576 0.28681-0.56092 0.54292-1.1984 0.61807-1.8292-0.0173-0.15417-0.0596-0.39194-0.16828-0.50024-0.10513-0.10548-0.22295-0.19862-0.35348-0.27129-0.15064-0.0836-0.29563-0.17709-0.43357-0.28046-0.23424-0.17568-0.2861-0.48965-0.2861-0.76376 0-0.4946 0.24483-0.901 0.60325-1.2273 0.39617-0.35983 0.86819-0.5401 1.403-0.5401 0.5782 0 1.0873 0.19156 1.47 0.63147 0.3743 0.43075 0.53623 0.95074 0.53623 1.5184 0 0.1277-5e-3 0.25506-0.0131 0.38206 0.17251-0.24024 0.34714-0.47907 0.52494-0.71544 0.36865-0.49177 0.73377-0.98601 1.0982-1.4806 0.18274-0.24801 0.39935-0.47625 0.6537-0.65194 0.30092-0.20849 0.71014-0.25753 1.0675-0.25753h0.76482c0.33549 0 0.61983 0.15734 0.61983 0.52423 0 0.0663-0.0152 0.13194-0.036 0.19438-0.0321 0.097-0.0868 0.20285-0.13229 0.29422l-7e-3 0.0134-8e-3 0.0123c-1.1822 1.7731-2.3654 3.5461-3.5631 5.3086-0.49248 0.72496-1.2259 1.9219-1.2259 2.8307 0 0.64206 0.34219 0.86219 0.95779 0.86219 0.54786 0 1.0784-0.14076 1.5769-0.3623 0.55033-0.24448 1.0478-0.57433 1.4884-0.98461 0.43497-0.40463 0.79763-0.8703 1.0756-1.3956 0.25823-0.4879 0.40251-1.009 0.40251-1.5618 0-0.33126-0.0656-0.64947-0.21378-0.94615-0.16545-0.33091-1.1165-0.38418-1.4213-0.39441l-0.25365-9e-3 0.0914-0.91087 0.17921-0.03c0.4378-0.073 0.88653-0.0988 1.33-0.0988 0.47695 0 0.95144 0.061 1.4083 0.20179 0.44133 0.13582 0.82692 0.36935 1.1349 0.71367 0.34325 0.38347 0.46708 0.87206 0.46708 1.3776 0 0.3295-0.0684 0.67451-0.15134 0.99237-0.0229 0.0889-0.0497 0.17674-0.0794 0.26317 0.41628-0.36548 0.82021-0.74507 1.2118-1.1366 0.58808-0.58808 1.1698-1.1825 1.7403-1.7879 0.44555-0.47237 0.88653-0.95285 1.306-1.4485 0.14358-0.16969 0.28716-0.33973 0.42827-0.51153 0.0787-0.0952 0.1584-0.19156 0.23248-0.29034 0.18415-0.24518 0.39935-0.47519 0.65229-0.65017 0.30127-0.20849 0.71014-0.25753 1.0675-0.25753h0.86043c0.33549 0 0.61983 0.15734 0.61983 0.52459 0 0.066-0.0148 0.13193-0.036 0.19438-0.0325 0.097-0.0864 0.20249-0.1323 0.29386l-7e-3 0.0134-8e-3 0.0123c-0.43956 0.65934-0.88865 1.313-1.3413 1.9639-0.49707 0.71437-0.98214 1.4369-1.4538 2.1685-0.41487 0.64382-0.80963 1.3056-1.1592 1.9876-0.17074 0.33267-0.45191 0.9204-0.45191 1.3021 0 0.0635 9e-3 0.14288 0.0519 0.19403 0.0699 0.0822 0.23389 0.0942 0.33197 0.0942 0.86889 0 1.6101-0.4318 2.2281-1.0114 0.18309-0.1718 0.36195-0.34784 0.53834-0.5267 0.10054-0.36795 0.25365-0.71755 0.44767-1.0463 0.34608-0.58667 0.79905-1.1077 1.3977-1.446 0.2159-0.13441 0.44626-0.24201 0.69003-0.31397l0.15699-0.18415 0.15804 0.11288c0.24871-0.0395 0.50059-0.0399 0.75142-4e-3 0.79657 0.1136 1.0774 0.80575 1.1345 1.5236 0.0483 0.43462-0.21096 0.83432-0.49071 1.1419-0.27799 0.30551-0.64946 0.6036-1.0837 0.6036-0.37571 0-0.69709-0.14534-0.86043-0.49565-0.073-0.15593-0.17921-0.24306-0.34643-0.26881-0.14322 0.0152-0.47977 0.29104-0.57502 0.37253-0.31715 0.27199-0.4191 0.65581-0.4191 1.0626 0 0.27305 0.12982 0.52881 0.28857 0.74365 0.19861 0.26952 0.48895 0.35772 0.8128 0.35772 0.29492 0 0.58667-0.0367 0.87171-0.11183 0.32209-0.0847 0.63535-0.22613 0.92675-0.38524 0.4064-0.22119 0.79692-0.49283 1.1666-0.77011 0.52811-0.39617 1.0294-0.84455 1.5092-1.2975l6e-3 -6e-3c0.77364-0.68086 1.4852-1.428 2.1212-2.2391 0.61031-0.77858 1.2414-1.5416 1.8976-2.2818 0.58456-0.65969 1.2326-1.2721 1.953-1.7815 0.70485-0.49847 1.4975-0.73695 2.3601-0.73695 0.33197 0 0.71191 0.0656 0.91687 0.35631 0.0949 0.13441 0.13335 0.2921 0.13335 0.45508 0 0.35384-0.22295 0.80998-0.38664 1.1158-0.27446 0.51258-0.57856 1.0114-0.89465 1.4993-0.37253 0.57609-0.7687 1.1374-1.1804 1.6866-0.39864 0.53164-0.78916 1.07-1.1656 1.6175-0.30092 0.43744-0.5976 0.87947-0.87877 1.33-0.0822 0.13123-0.32244 0.52952-0.32244 0.68686 0 0.01 7.1e-4 0.0314 4e-3 0.0452 0.0138 4e-3 0.0356 4e-3 0.0455 4e-3 0.66922 0 1.2689-0.52564 1.687-0.99589 0.39899-0.44909 0.77822-0.92181 1.149-1.3942 0.53164-0.67663 1.0499-1.3649 1.5632-2.0556 0.37994-0.51223 0.76518-1.0206 1.1479-1.531 0.37042-0.49354 0.77541-0.96309 1.2206-1.391 0.41663-0.40075 0.88089-0.74612 1.3914-1.0185 0.53939-0.28751 1.1285-0.41063 1.7371-0.41063 0.33197 0 0.71191 0.0656 0.91687 0.35631 0.0949 0.13441 0.13335 0.2921 0.13335 0.45508 0 0.54363-0.44238 1.2686-0.73236 1.7082-0.49989 0.75812-1.0231 1.5014-1.5607 2.2331-0.54293 0.73943-1.0612 1.4979-1.543 2.279-0.26952 0.43674-0.65793 1.1391-0.65793 1.6683 0 0.0635 9e-3 0.14288 0.0522 0.19403 0.0699 0.0822 0.23354 0.0942 0.33196 0.0942 0.86854 0 1.6101-0.4318 2.2282-1.0114 0.46425-0.43533 0.90734-0.90029 1.3381-1.3681 0.59796-0.64806 1.1786-1.313 1.7512-1.9833l0.14111-0.1658 0.72143 0.5154-0.1658 0.1965c-0.50589 0.60078-1.0072 1.2054-1.5035 1.8136-0.4826 0.59161-1.0079 1.1486-1.5804 1.6538-0.53869 0.47484-1.1296 0.88406-1.7724 1.2054-0.58985 0.29493-1.2245 0.44098-1.8771 0.47273v7e-3h-0.13829c0.0716 0.24765 0.0501 0.52599-0.0233 0.77929-0.0406 0.13934-0.0713 0.27975-0.1143 0.4191-0.0677 0.21942-0.15487 0.42827-0.26318 0.63076-0.27446 0.51259-0.57855 1.0114-0.89429 1.499-0.37288 0.57643-0.76905 1.1377-1.1807 1.6866-0.39864 0.53198-0.78917 1.0703-1.1656 1.6178-0.30092 0.43745-0.59725 0.87983-0.87877 1.33-0.0822 0.13123-0.32244 0.52952-0.32244 0.68686 0 0.01 7.1e-4 0.0317 4e-3 0.0455 0.0138 3e-3 0.0353 4e-3 0.0452 4e-3 0.66922 0 1.2689-0.52528 1.687-0.99589 0.39899-0.44908 0.77823-0.92181 1.1494-1.3942 0.53128-0.67662 1.0495-1.3649 1.5624-2.0556 0.3803-0.51223 0.76553-1.0206 1.1483-1.5307 0.37041-0.49389 0.7754-0.96344 1.2206-1.3914 0.41698-0.40076 0.88088-0.74612 1.3914-1.0185 0.5394-0.28751 1.1285-0.41063 1.7371-0.41063 0.33196 0 0.71191 0.0656 0.91722 0.3563 0.0946 0.13441 0.133 0.2921 0.133 0.45509 0 0.54363-0.44238 1.2682-0.73201 1.7082-0.49989 0.75812-1.0234 1.5014-1.561 2.2331-0.54292 0.73942-1.0612 1.4982-1.543 2.2789-0.26952 0.43674-0.65793 1.1391-0.65793 1.6683 0 0.0639 9e-3 0.14288 0.0522 0.19403 0.0699 0.0822 0.23354 0.0942 0.33197 0.0942 0.86854 0 1.6101-0.4318 2.2281-1.0114 0.46426-0.43533 0.90735-0.90065 1.3384-1.3681 0.59761-0.6484 1.1783-1.313 1.7508-1.9833l0.14146-0.16581 0.55598 0.39723 11.376-17.989c0.14922-0.23601 0.29492-0.5013 0.47131-0.71685 0.16616-0.20355 0.37112-0.36124 0.60995-0.47166 0.26176-0.12065 0.55457-0.18168 0.83961-0.21167 0.40887-0.043 0.83326-0.0494 1.2442-0.0494 0.29845 0 0.70344 0.043 0.85478 0.34572 0.0353 0.0709 0.0515 0.14782 0.0515 0.22684 0 0.29422-0.21167 0.63218-0.38206 0.85937l-15.689 20.915c0.1965 0.23989 0.29457 0.52317 0.29457 0.83855 0 0.47379-0.20743 0.86643-0.55668 1.1808-0.35666 0.32068-0.77823 0.49107-1.2587 0.49107-0.40288 0-0.85161-0.0843-1.1014-0.43392-0.17815-0.25012-0.27904-0.52987-0.28292-0.83608-0.41487 0.32103-0.85761 0.60325-1.3282 0.83855-0.5902 0.29492-1.2245 0.44274-1.8775 0.47343v6e-3h-0.52175v-0.01c-0.42757-0.0328-0.84173-0.14923-1.2072-0.38735-0.46567-0.30374-0.65758-0.77647-0.65758-1.3226 0-0.61065 0.22225-1.2485 0.47625-1.797 0.31786-0.68615 0.68545-1.3487 1.0904-1.9872 0.0762-0.1203 0.1531-0.23989 0.23072-0.35913-0.21732 0.28363-0.43604 0.56586-0.65582 0.84737-0.43215 0.55386-0.85231 1.1172-1.2608 1.6891-0.38911 0.54504-0.81844 1.0622-1.2922 1.536-0.43744 0.43779-0.92322 0.82585-1.4587 1.137-0.53128 0.30833-1.107 0.46249-1.7212 0.46249-0.9973 0-1.815-0.37571-1.815-1.4806 0-0.51752 0.31432-1.1712 0.55421-1.6182 0.38453-0.71684 0.81915-1.4086 1.2806-2.0782 0.49106-0.71297 1.0036-1.4111 1.5388-2.0916 0.1905-0.24271 0.38171-0.48507 0.57433-0.72672-0.10019 0.0885-0.19121 0.17603-0.26776 0.25258-0.54681 0.54646-1.0753 1.113-1.5928 1.688-0.59161 0.65722-1.1709 1.3254-1.7399 2.002-0.54752 0.65087-1.1352 1.2707-1.7681 1.8401-0.46072 0.41522-0.93662 0.8195-1.434 1.1899-0.38523 0.28681-0.7941 0.56268-1.222 0.7814-0.71438 0.36513-1.4785 0.57573-2.2835 0.57573-0.58385 0-1.1836-0.12029-1.6372-0.51188-0.44415-0.38347-0.60784-0.91969-0.60784-1.4944 0-0.14499 8e-3 -0.28893 0.024-0.4318l1.2245-0.24483c0.0639-0.12453 0.15099-0.23883 0.26705-0.33831 0.0952-0.0815 0.43145-0.35737 0.57468-0.37254 0.16722 0.0257 0.2734 0.11289 0.34643 0.26882 0.16333 0.35031 0.48507 0.4953 0.86042 0.4953 0.43462 0 0.8061-0.29775 1.0841-0.6036 0.2794-0.30727 0.53869-0.70697 0.49071-1.142-0.0575-0.71755-0.33831-1.4097-1.1349-1.5233-0.36301-0.0519-0.71262-0.0265-1.0478 0.0699 0.29739-0.63041 0.4953-1.3106 0.4953-2.0101 0-0.71261-0.30833-1.3074-0.81351-1.7963-0.29916-0.28928-0.67416-0.47731-1.077-0.5962 0.71896-0.0367 1.4041-0.24059 2.0489-0.57009 0.42792-0.21872 0.83679-0.49459 1.2217-0.78105 0.49777-0.37077 0.97367-0.77505 1.4344-1.1903 0.63253-0.56938 1.2206-1.1892 1.7681-1.8401 0.56903-0.67662 1.1483-1.3448 1.7399-2.002 0.51717-0.57503 1.046-1.1412 1.5928-1.688 0.0765-0.0765 0.16757-0.16404 0.26776-0.25259-0.19262 0.24165-0.38382 0.48436-0.57468 0.72672-0.53481 0.68051-1.0474 1.3787-1.5385 2.0916-0.46143 0.66957-0.89606 1.3614-1.2806 2.0782-0.23989 0.44733-0.55422 1.1007-0.55422 1.6182 0 1.1049 0.81774 1.4806 1.815 1.4806 0.61419 0 1.1899-0.15416 1.7208-0.46249 0.53587-0.31115 1.0213-0.69956 1.4591-1.137 0.47378-0.47378 0.90311-0.99095 1.2922-1.536 0.40851-0.57186 0.82867-1.1349 1.2608-1.6891 0.21978-0.28117 0.4385-0.56374 0.65581-0.84738-0.0776 0.11924-0.15452 0.23919-0.23072 0.35878-0.40499 0.63888-0.77258 1.3014-1.0904 1.9879-0.25436 0.54786-0.47625 1.186-0.47625 1.797 0 0.4826 0.14993 0.9077 0.50659 1.21-0.63818 0.25082-1.258 0.74683-1.7078 1.1691-0.30021 0.28117-0.62195 0.54011-0.93416 0.80751-0.34995 0.29951-0.68791 0.60784-0.99377 0.95321-0.65617 0.74013-1.2869 1.5032-1.8976 2.2818-0.63606 0.81069-1.3476 1.5582-2.1213 2.2391l-6e-3 6e-3c-0.47942 0.45297-0.98072 0.90135-1.5092 1.2975-0.36971 0.27728-0.76024 0.54892-1.1666 0.77046-0.29104 0.15875-0.60466 0.30022-0.92674 0.38488-0.28469 0.0751-0.57715 0.11183-0.87172 0.11183-0.3242 0-0.61454-0.0882-0.8128-0.35736-0.15839-0.21519-0.28857-0.47096-0.28857-0.74401 0-0.25788 0.0409-0.50729 0.1524-0.72425l-1.2245 0.24483c-0.75459 0.65299-1.5924 1.1949-2.4966 1.626-1.0192 0.48648-2.1015 0.76447-3.2336 0.76447l0.57326-0.95285c-0.27975 0-0.63253-0.0459-0.81385-0.28752-0.14923-0.19932-0.23919-0.4198-0.23919-0.67063 0-0.80363 0.26423-1.6157 0.59937-2.3382 0.40534-0.87312 0.90029-1.6986 1.4799-2.4666 0.54222-0.71826 1.1684-1.3727 1.8895-1.9131 0.49354-0.37041 1.1335-0.74153 1.7699-0.74153 0.71967 0 1.197 0.23071 1.197 1.0054 0 0.67451-0.26987 1.445-0.53093 2.0585-0.37218 0.87348-0.8509 1.6954-1.4079 2.4634-0.55669 0.76729-1.2016 1.4633-1.9406 2.0581-0.56974 0.45826-1.2538 0.83221-2.0031 0.83221l-0.57326 0.95285c-0.80222 0-1.7932-0.10971-2.426-0.65511-0.56092-0.48366-0.77576-1.1497-0.77576-1.8771 0-0.26106 0.0247-0.52035 0.0688-0.77646l-0.11112-1.2711c-0.41134 0.47166-0.82339 0.94262-1.2368 1.4125-0.66428 0.75459-1.3451 1.4951-2.0475 2.214-0.6657 0.68122-1.3554 1.3395-2.0676 1.9724-0.40745 0.36231-0.8202 0.71861-1.2375 1.0693 1.003-1.6626 1.9988-3.3299 2.9863-5.002 1.215-2.0578 2.4186-4.1226 3.6107-6.1934l4e-3 -6e-3 3e-3 -6e-3c0.0515-0.10301 0.10971-0.22366 0.13758-0.33549 0.0159-0.0639 0.0307-0.13476 0.0307-0.20108 0-0.36654-0.28434-0.52423-0.61983-0.52423h-0.71684c-0.36971 0-0.7239 0.0882-1.0248 0.30903-0.26459 0.19403-0.48472 0.43286-0.65864 0.71085l-0.061 0.0917c-0.18238-0.28751-0.41945-0.53551-0.68968-0.74965-0.28857-0.22825-0.6544-0.35807-1.0333-0.42862 0.64382-0.0857 1.2728-0.25153 1.8838-0.49813 0.92075-0.37147 1.7988-0.83467 2.6247-1.3854 0.81951-0.54646 1.5903-1.1624 2.3033-1.8422 0.22684-0.21696 0.45367-0.43497 0.6791-0.65334-0.0829 0.1464-0.16334 0.29421-0.24095 0.44344-0.18627 0.35701-0.35313 0.72566-0.49071 1.1042-0.11995 0.32985-0.20567 0.68439-0.20567 1.0375 0 0.55598 0.20672 1.0255 0.68544 1.3247 0.4565 0.2854 0.97861 0.39476 1.512 0.39476 0.75247 0 1.4862-0.14146 2.1618-0.47943 0.53728-0.26881 1.0389-0.59866 1.5035-0.97754 0.0649 0.41733 0.24024 0.79692 0.57785 1.0883 0.16016 0.13829 0.33867 0.24306 0.52811 0.32032-0.0533-1e-3 -0.10619-2e-3 -0.15875-2e-3 -1.1808 0-2.311 0.25576-3.3768 0.76411-1.0269 0.48966-1.9618 1.1296-2.7672 1.935-0.52317 0.52317-0.99307 1.0964-1.391 1.7194l-8e-3 -6e-3 -0.14181 0.16334c-0.35137 0.40569-0.7038 0.81103-1.0566 1.2157l0.11112 1.2711c-0.42968 0.49882-0.86395 0.99483-1.3039 1.4848-0.76764 0.85443-1.5561 1.6937-2.3774 2.497-0.69745 0.68262-1.4175 1.3441-2.1646 1.9724-0.74648 0.62794-1.5011 1.2471-2.2602 1.8606-1.1204 2.135-2.2881 4.2471-3.5211 6.32-1.0915 1.8352-2.2348 3.6424-3.4512 5.3982-2.0983 3.0296-4.5106 5.8808-7.3071 8.2917-1.0601 0.91369-2.2162 1.717-3.4657 2.3506-1.0463 0.53022-2.1989 0.91016-3.3824 0.91016-0.71932 0-1.4503-0.16757-1.9463-0.72531-0.44203-0.49742-0.63359-1.0996-0.63359-1.7593 0-1.8835 0.90135-3.6657 1.9812-5.159 1.4354-1.9847 3.1496-3.7902 4.9569-5.4384 2.098-1.9135 4.3296-3.6809 6.6439-5.3248 2.3019-1.6358 4.6464-3.2142 7.0407-4.7117l-1.0075 1.8948c-0.4953 0.83573-0.99095 1.6711-1.4866 2.5068-0.87278 1.4718-1.7752 2.9259-2.6966 4.3677-1.0044 1.5709-2.0398 3.1221-3.1027 4.6538-1.0065 1.4503-2.0708 2.866-3.2131 4.2125-0.9211 1.0866-1.9262 2.1495-3.0293 3.0536-0.63571 0.52141-1.5494 1.1416-2.407 1.1416-0.2152 0-0.42087-0.049-0.53764-0.24341-0.14217-0.23742-0.18132-0.53799-0.18132-0.80998 0-1.1395 0.32243-2.3442 0.70343-3.41 0.56163-1.5734 1.59-3.0981 2.6166-4.4034 0.70661-0.89853 1.4855-1.7466 2.2938-2.5545 0.97402-0.97402 2.0006-1.8994 3.0512-2.7898 1.2555-1.0636 2.5732-2.0602 3.9158-3.011 1.3314-0.94298 2.6934-1.8436 4.0735-2.7143l1.0075-1.8948c0.40676-0.65158 0.8061-1.3092 1.185-1.977 0.32914-0.57961 0.65546-1.1606 0.97931-1.7431 0.34713-0.62477 0.6985-1.2467 1.053-1.8669 0.19473-0.34149 0.38946-0.68298 0.5842-1.0248l-0.68369-0.65652c0.49248-0.45932 0.95497-0.95039 1.3917-1.4626 0.44098-0.51682 0.86431-1.0502 1.2527-1.6073 0.31961-0.45861 0.61983-0.93098 0.89711-1.4164 0.22331-0.39052 0.3496-0.80998 0.35101-1.2601-0.0215-0.28681-0.10548-0.57997-0.36406-0.73801-0.25541-0.15593-0.5334-0.2279-0.83256-0.2279-0.75177 0-1.4478 0.36478-2.0309 0.81139-0.75318 0.57715-1.4238 1.2492-2.0144 1.9914-0.59549 0.74789-1.1105 1.5554-1.5254 2.4172-0.28787 0.59725-0.59831 1.3748-0.59831 2.0482 0 0.22367 0.0561 0.45227 0.13017 0.66217 0.0811 0.23036 0.48931 0.24765 0.68404 0.24765 0.43603 0 0.87277-0.18274 1.2435-0.39794 0.51223-0.29739 0.98319-0.66428 1.4153-1.0678l0.68369 0.65652c-0.45297 0.4011-0.93557 0.76799-1.4496 1.082-0.82479 0.50411-1.7311 0.82373-2.7054 0.82373-0.71896 0-1.6362-0.10936-2.1209-0.70979-0.36089-0.44661-0.55492-0.95955-0.55492-1.5356 0-0.27587 0.0243-0.54892 0.0695-0.81844-0.13794 0.14252-0.2794 0.28187-0.42369 0.41769-0.83996 0.79022-1.7928 1.4333-2.8335 1.9297-1.0192 0.48648-2.1015 0.76447-3.2339 0.76447l0.57397-0.95285c-0.28011 0-0.63289-0.0459-0.81386-0.28752-0.14958-0.19932-0.23954-0.4198-0.23954-0.67063 0-0.80363 0.26388-1.6157 0.59937-2.3382 0.40534-0.87312 0.89994-1.6986 1.4803-2.4666 0.54222-0.71826 1.168-1.3727 1.8891-1.9131 0.49354-0.37041 1.1338-0.74153 1.7699-0.74153 0.71967 0 1.197 0.23071 1.197 1.0054 0 0.67451-0.26952 1.445-0.53093 2.0585-0.37182 0.87348-0.8509 1.6954-1.4079 2.4634-0.55669 0.76729-1.2016 1.4633-1.941 2.0581-0.56938 0.45826-1.2531 0.83221-2.0024 0.83221l-0.57397 0.95285c-0.80187 0-1.7928-0.10971-2.4257-0.65511-0.56057-0.48366-0.77541-1.1497-0.77541-1.8771 0-0.29669 0.0318-0.59126 0.0882-0.88159l-0.31362-0.94015c-0.28611 0.30127-0.57715 0.5976-0.87419 0.88653-0.49565 0.48224-1.035 0.95426-1.614 1.3342-0.44803 0.29387-0.93592 0.53093-1.4573 0.66146-0.52105 0.13018-1.0622 0.16475-1.5974 0.13688-0.34537-0.0349-0.75071-0.13265-0.78493-0.53693 7.1e-4 -0.18027 0.0254-0.35983 0.066-0.53552 0.0473-0.20672 0.18168-0.41063 0.31256-0.57432 0.21767-0.27199 0.51294-0.51611 0.79234-0.72213 0.44874-0.33197 0.97226-0.61384 1.4707-0.86325 0.63712-0.31821 1.2749-0.66464 1.8666-1.0608 0.41275-0.27623 0.8449-0.60325 1.1709-0.98002 0.39476-0.45614 0.83573-1.083 0.82303-1.7142-0.0148-0.74224-0.19438-1.4901-0.81315-1.9434l-0.16581-0.91299c0.74895 0 1.433-0.37394 2.0024-0.8322 0.73942-0.59443 1.3843-1.2908 1.941-2.0581 0.55704-0.76764 1.0361-1.59 1.4079-2.4634 0.26141-0.61348 0.53058-1.3839 0.53058-2.0584 0-0.7747-0.47696-1.0054-1.1966-1.0054-0.63606 0-1.2764 0.37112-1.7699 0.74119-0.72108 0.54116-1.3469 1.1948-1.8895 1.9135-0.57997 0.768-1.0746 1.5938-1.4799 2.4666-0.3355 0.72249-0.59937 1.5346-0.59937 2.3382 0 0.25047 0.09 0.47131 0.23953 0.67027 0.18098 0.24201 0.53376 0.28787 0.81386 0.28787l0.16581 0.91299c0.86536-0.0924 1.699-0.34537 2.4941-0.72461 1.0407-0.49636 1.9939-1.1395 2.8335-1.9297 0.3302-0.31115 0.64452-0.63888 0.93803-0.98425-0.0829 0.38382-0.13511 0.77223-0.13511 1.1462 0 0.65758 0.17568 1.2672 0.57432 1.7928 0.32244 0.4251 0.89429 0.62442 1.4728 0.71508-0.6851 0.12241-1.3497 0.3369-1.9911 0.64276-1.0269 0.48966-1.9618 1.1296-2.7668 1.935-0.58913 0.58878-1.1098 1.24-1.5367 1.9551l-0.0984 0.11077c-0.375 0.42157-0.756 0.84138-1.1458 1.2524l0.31362 0.94015c-0.15558 0.16545-0.31115 0.33055-0.46743 0.49495-0.55563 0.58596-1.1638 1.1299-1.8309 1.5864-0.59549 0.40746-1.2386 0.73871-1.9255 0.96202-0.70238 0.22825-1.4393 0.32244-2.1766 0.32244-0.71473 0-1.5501-0.0921-2.1622-0.49283-0.61525-0.40322-0.80046-1.0992-0.80046-1.8002 0-0.84949 0.31962-1.5797 0.90135-2.195 0.73201-0.77399 1.8623-1.3702 2.825-1.7988 0.66252-0.29528 2.7757-1.263 2.7757-2.1735 0-0.23212-0.0893-0.39475-0.28928-0.51258-0.27023-0.15875-0.59902-0.20638-0.9077-0.20638-0.47519 0-0.95638 0.1831-1.3712 0.40288-0.5835 0.30903-1.1384 0.68086-1.6648 1.0791-0.61383 0.46461-1.1949 0.97367-1.7466 1.5106-0.57256 0.55703-1.1187 1.1409-1.6334 1.7515l-0.13265 0.15769-0.79128-0.49424 0.17956-0.20955c0.59126-0.69003 1.2107-1.3554 1.8528-1.9978 0.63359-0.63359 1.301-1.234 2.0055-1.7875 0.63677-0.50024 1.3208-0.9465 2.0525-1.2947 0.4579-0.21802 0.97225-0.44662 1.4912-0.55774-0.10725-0.0624-0.20814-0.13335-0.30163-0.21414-0.56056-0.4833-0.7754-1.1494-0.7754-1.8768 0-0.2794 0.0279-0.55668 0.0783-0.83044-0.76588 0.7994-1.5882 1.5452-2.4705 2.2147-0.90981 0.69004-1.8923 1.276-2.9425 1.7262-0.99589 0.42686-2.044 0.66463-3.1291 0.66463-0.97508 0-1.8493-0.30339-2.6106-0.91264-0.92075-0.73624-1.1645-1.9318-1.1645-3.0536 0-0.79128 0.14534-1.6016 0.34184-2.3661 0.25682-0.99977 0.61701-1.9847 1.0149-2.9365 0.93839-2.2451 2.116-4.4041 3.4082-6.4664-0.5969-0.0801-1.1977-0.13864-1.7974-0.18556-0.8128-0.0639-1.6281-0.0949-2.4437-0.0949-0.60113 0-1.203 0.0141-1.8034 0.0476-0.51682 0.0286-1.0329 0.0709-1.5473 0.12911-1.0199 1.5889-2.0877 3.1468-3.1979 4.6736-1.1296 1.5533-2.3573 3.0335-3.6625 4.4418 1.5346 1.1673 2.7651 2.6088 3.6121 4.3504 0.86219 1.7734 1.2908 3.6537 1.2908 5.6258 0 2.0112-0.45368 3.9476-1.263 5.7848-0.87806 1.9921-2.183 3.707-3.7864 5.1714-1.833 1.6743-4.0474 2.8684-6.3645 3.7285-2.8423 1.0548-5.9327 1.4252-8.951 1.4252-2.5795 0-5.1368-0.32667-7.6362-0.96344-2.4751-0.63076-4.8338-1.5977-7.0203-2.9192-2.1625-1.3074-4.0524-2.951-5.6543-4.9054-1.6552-2.0193-2.7746-4.343-3.4562-6.8545l-0.23036-1.041c-1.1772-0.46884-2.3036-1.0513-3.3613-1.7519-1.1377-0.75318-2.1586-1.6545-3.0325-2.703-0.87736-1.0527-1.5526-2.238-2.0401-3.5179-0.54116-1.421-0.7493-2.9429-0.7493-4.4574 0-1.6291 0.35525-3.1828 1.0527-4.6556 0.71755-1.5141 1.7353-2.8166 3.0007-3.9141 1.373-1.191 2.9623-2.0708 4.6605-2.7058 1.9244-0.71967 3.9638-1.0128 6.0124-1.0128 0.7941 0 1.5931 0.0836 2.3763 0.21167 0.72108 0.11818 1.4333 0.28504 2.1318 0.49741l1.5889 0.56551c0.76764 0.33196 1.5081 0.7239 2.2137 1.174 0.72002 0.45967 1.3695 1.0118 1.9332 1.6538 0.56268 0.64065 1.0015 1.3649 1.3208 2.1551 0.33972 0.84102 0.48472 1.7318 0.48472 2.6363 0 2.3026-0.8255 4.2037-2.6571 5.6212-2.1481 1.6623-5.1297 2.1943-7.7777 2.317l-0.25294 0.0116 0.09913 0.89288h0.21272c1.5071 0 3.0004-0.20109 4.4581-0.58138 1.4164-0.36936 2.7795-0.91475 4.0315-1.676 1.1673-0.70979 2.1671-1.6185 2.9411-2.746 0.7807-1.137 1.1412-2.4137 1.1412-3.7916 0-1.0308-0.18027-2.0398-0.59337-2.987-0.39264-0.89959-0.91828-1.7202-1.5702-2.4536-0.66746-0.75107-1.4436-1.3857-2.3005-1.9092-0.75812-0.46319-1.5522-0.8636-2.3717-1.2047 2.8109-1.7036 5.891-2.933 9.0523-3.8142 3.9402-1.0982 8.0945-1.4972 12.175-1.4972 1.6916 0 3.3835-0.0251 5.0744-0.072 1.7533-0.0487 3.5027-0.20391 5.2384-0.4565 1.8041-0.26247 3.5821-0.67945 5.3202-1.2277 1.3021-0.41028 2.5622-0.93627 3.7758-1.5565-0.90276 0.92357-1.7685 1.8831-2.5954 2.8755-1.1994 1.4393-2.3509 2.9185-3.4519 4.4344-1.1067 1.5244-2.1914 3.0642-3.2547 4.6193-1.0576 1.5473-2.1216 3.09-3.1792 4.6373-0.66569 0.97402-1.3448 1.9389-2.0503 2.8847-0.66499 0.89182-1.3427 1.7741-2.0327 2.6469-1.0054-0.43921-2.0574-0.76976-3.126-1.0153-1.2986-0.29845-2.643-0.4124-3.9733-0.4124-1.7498 0-3.4618 0.2921-5.1022 0.89923-1.5766 0.58314-3.0145 1.427-4.2605 2.5566-1.2277 1.113-2.2006 2.4292-2.9228 3.9211-0.76764 1.5868-1.0996 3.2949-1.0996 5.0514 0 0.26776 0.0088 0.53552 0.02434 0.80292 0.01129 0.19227 0.02716 0.38453 0.04727 0.57574l0.8763-0.16969c1.983-0.35172 3.9483-0.86289 5.8247-1.5974 1.7614-0.68933 3.4579-1.537 5.0497-2.5601 1.5155-0.97437 2.9482-2.0722 4.27-3.2971 1.2305-1.1405 2.3918-2.3544 3.4773-3.6336-0.8128-0.44979-1.6852-0.77752-2.5859-1.0061-1.1123-0.28222-2.2617-0.39899-3.4075-0.39899-1.6471 0-3.2664 0.25435-4.8218 0.79939-1.4771 0.51788-2.8384 1.2689-4.0375 2.2765-1.1765 0.98813-2.1033 2.1795-2.7845 3.5567-0.72072 1.4577-1.0269 3.0318-1.0269 4.6517v0.74119c0 0.15698 0.01482 0.31362 0.04233 0.46778l-0.8763 0.16969c-0.94156 0.14534-1.8898 0.25012-2.8399 0.32102-1.0993 0.0822-2.2024 0.11889-3.3048 0.11889-1.6129 0-3.2226-0.14041-4.814-0.40322-1.5769-0.26-3.1291-0.64947-4.6411-1.1663l0.29916 1.0336c0.67733 2.2017 1.7325 4.2256 3.2187 5.999 1.5409 1.8401 3.351 3.3821 5.4134 4.6097 2.0863 1.2425 4.3279 2.1639 6.6788 2.7714 2.3502 0.60677 4.7554 0.92463 7.1836 0.92463 2.7143 0 5.5069-0.34961 8.0387-1.3695 2.0729-0.83502 4.0248-1.9748 5.6367-3.5359 1.4386-1.3931 2.5813-3.0117 3.3397-4.8676 0.70944-1.7357 1.106-3.5535 1.106-5.4317 0-1.7039-0.31609-3.3538-0.96237-4.9301-0.60537-1.4764-1.4901-2.7573-2.6638-3.8276-1.2548 1.2418-2.5841 2.4066-3.974 3.4946-1.5102 1.1818-3.126 2.2225-4.8151 3.1295-1.7946 0.96379-3.6763 1.7579-5.6063 2.4063-2.0246 0.68016-4.1127 1.1666-6.2216 1.5011 0.21414 0.95144 0.57856 1.9152 1.2118 2.6624 0.47131 0.55562 1.0703 1.1296 1.7515 1.4168l0.2734 0.11501-0.52352 0.73307-0.17674-0.0776c-0.88724-0.39017-1.6016-1.0224-2.1749-1.797-0.63147-0.85337-1.0227-1.8591-1.2608-2.8886-2.093 0.27905-4.2062 0.40323-6.3172 0.40323-1.6048 0-3.2082-0.13935-4.7932-0.38559-1.482-0.23001-2.9415-0.58067-4.3628-1.0555l-0.29989-1.0334c-0.17604-0.77964-0.31644-1.567-0.42086-2.3597-0.115-0.86889-0.16545-1.7459-0.16545-2.6222 0-1.6951 0.25541-3.3722 0.70873-5.0042 0.48824-1.7582 1.2171-3.4332 2.128-5.0126 0.98778-1.7117 2.1879-3.29 3.5302-4.7382 1.4436-1.5572 3.0865-2.9157 4.8472-4.0993l-1.5889-0.56551c-1.6115 1.2234-3.1059 2.5972-4.4252 4.1338-1.3014 1.5155-2.4589 3.1552-3.3997 4.9191-0.87454 1.6397-1.566 3.3676-2.0285 5.1682-0.42827 1.6676-0.67663 3.3796-0.67663 5.1029 0 1.5723 0.14182 3.1485 0.47872 4.6852l0.23036 1.041c-1.3723-0.50835-2.6843-1.1568-3.9215-1.9399-1.2531-0.79305-2.3753-1.7568-3.3295-2.8924-0.96026-1.1423-1.7014-2.4296-2.2391-3.8202-0.59866-1.5494-0.82868-3.2117-0.82868-4.8666 0-1.7727 0.39158-3.4682 1.1462-5.0729 0.768-1.6348 1.8404-3.0561 3.1881-4.2594 0.11712-0.10442 0.23636-0.20744 0.35701-0.30798-2.3506 0.58314-4.7516 0.87489-7.1766 0.87489-1.451 0-2.9055-0.0917-4.3409-0.30797-1.2478-0.18839-2.4804-0.4886-3.6622-0.9331l0.90523-0.75353c1.0329 0.34678 2.1121 0.57608 3.1873 0.7306 1.475 0.21202 2.9771 0.28928 4.4662 0.28928 2.1967 0 4.3713-0.29563 6.495-0.85337 1.1314-0.29739 2.2479-0.6537 3.3366-1.082 0.43709-0.20814 0.8823-0.39935 1.3353-0.57044l6e-3 -2e-3c0.39194-0.18098 0.77893-0.37253 1.1599-0.57538 1.5282-0.8128 2.9905-1.8284 4.1578-3.1164 0.87101-0.96097 1.5494-2.1202 1.5494-3.4516 0-0.67451-0.1711-1.3279-0.81315-1.6489-0.69215-0.34608-1.5176-0.44697-2.2825-0.44697-1.8673 0-3.7232 0.30057-5.5203 0.79692-2.007 0.55421-3.9511 1.3176-5.8194 2.2341-2.0373 0.99942-3.9906 2.1678-5.8589 3.4544-1.8863 1.2996-3.6865 2.721-5.3993 4.2418l-0.90523 0.75353c-2.5418 2.3312-4.8967 4.8578-7.0619 7.5417-2.1766 2.6984-4.1326 5.5697-5.8102 8.6042-1.5871 2.8713-2.9115 5.8822-3.8981 9.0121-0.90332 2.8663-1.4334 5.8353-1.4334 8.8452 0 2.4768 0.49057 5.0211 2.0861 6.9892 1.6269 2.0077 4.2089 2.5513 6.6765 2.5513 2.4313 0 4.8092-0.42298 7.0439-1.397 2.0094-0.87595 3.902-2.0073 5.5488-3.4604 1.4199-1.2531 2.6889-2.6966 3.6163-4.3547 0.67486-1.2058 1.2753-2.6462 1.2753-4.0506 0-1.1204-0.2801-2.1968-1.1419-2.9609-0.90699-0.80398-2.1682-1.0238-3.3426-1.0238-1.1451 0-2.261 0.19614-3.3338 0.59619-1.0559 0.3937-2.0764 0.8763-3.0446 1.4534-0.8956 0.5341-1.7658 1.1162-2.5859 1.7607-0.63391 0.49777-1.2668 1.0015-1.8824 1.5222l-0.16662 0.14111-0.65924-0.65934 0.17498-0.16757c1.7104-1.6408 3.6142-3.085 5.7215-4.1783 1.9477-1.0107 4.0255-1.5547 6.2205-1.5547 1.6379 0 3.3158 0.33444 4.5974 1.4175 1.1278 0.95285 1.6954 2.177 1.6954 3.6534 0 1.8747-0.75847 3.5976-1.821 5.1089-1.2728 1.8094-2.879 3.3422-4.6658 4.6387-1.9826 1.4386-4.1716 2.5428-6.4763 3.3648-2.3454 0.83608-4.7817 1.2915-7.274 1.2915-1.9004 0-3.9459-0.20214-5.7262-0.90558-1.393-0.54998-2.6869-1.3339-3.6996-2.45-0.94216-1.0382-1.5941-2.2444-1.9695-3.5959-0.38308-1.3797-0.5643-2.7989-0.5643-4.2302 0-3.1577 0.5829-6.2576 1.5959-9.2428 1.0899-3.2124 2.5495-6.2809 4.2992-9.1853 1.8499-3.0702 3.9921-5.9538 6.3583-8.6452 2.3312-2.6515 4.8573-5.1252 7.5669-7.3886-1.1157-0.65017-2.0992-1.4817-2.8591-2.5382-0.81841-1.1377-1.1836-2.4345-1.1836-3.8329 0-1.451 0.40171-2.7852 1.2066-3.9924z" fill="none" stroke="#cacaca" stroke-width=".353"/>
 </g>
</svg>
